<svg width="91" height="32" viewBox="0 0 91 32" fill="none" xmlns="http://www.w3.org/2000/svg">
<rect width="91" height="32" fill="#0E86CA"/>
<path fill-rule="evenodd" clip-rule="evenodd" d="M18.6825 8.06347C18.9859 7.91528 19.3549 8.03542 19.5066 8.3318L21.3095 11.8536C22.4178 11.9368 23.1133 12.1491 23.562 12.6913C24.2996 13.5824 24.0054 14.9236 23.4169 17.6058L23.0659 19.2058C22.667 21.0238 22.4676 21.9328 21.7918 22.4664C21.116 23 20.1642 23 18.2606 23H14.7394C12.8358 23 11.884 23 11.2082 22.4664C10.5324 21.9328 10.333 21.0238 9.93411 19.2058L9.58308 17.6058C8.99461 14.9236 8.70038 13.5824 9.43799 12.6913C9.88671 12.1491 10.5822 11.9368 11.6904 11.8536L13.4933 8.3318C13.6451 8.03542 14.0141 7.91528 14.3175 8.06347C14.6209 8.21166 14.7439 8.57207 14.5922 8.86845L13.0893 11.8043C13.4851 11.8001 13.9169 11.8001 14.3884 11.8001H18.6116C19.0831 11.8001 19.5149 11.8001 19.9106 11.8043L18.4077 8.86845C18.256 8.57207 18.379 8.21166 18.6825 8.06347ZM12.6094 15.8001C12.6094 15.4687 12.8844 15.2001 13.2237 15.2001H19.7762C20.1155 15.2001 20.3905 15.4687 20.3905 15.8001C20.3905 16.1314 20.1155 16.4001 19.7762 16.4001H13.2237C12.8844 16.4001 12.6094 16.1314 12.6094 15.8001ZM14.8618 17.6C14.5226 17.6 14.2475 17.8687 14.2475 18.2C14.2475 18.5314 14.5226 18.8 14.8618 18.8H18.1381C18.4774 18.8 18.7524 18.5314 18.7524 18.2C18.7524 17.8687 18.4774 17.6 18.1381 17.6H14.8618Z" fill="white"/>
<path d="M42.6934 12.8574V14H37.5713V12.8574H42.6934ZM38.0059 12.8574V15.7432H36.6289L36.5508 12.8574H38.0059ZM43.748 12.8574L43.6211 15.748H42.2783V12.8574H43.748ZM41.8877 6.89062V8.03809H38.4648V6.89062H41.8877ZM42.9326 6.89062V14H41.4727V6.89062H42.9326ZM38.2842 6.89062H39.749L39.5586 9.78613C39.5293 10.2646 39.4772 10.6878 39.4023 11.0557C39.3307 11.4202 39.2428 11.7409 39.1387 12.0176C39.0378 12.2943 38.9255 12.5368 38.8018 12.7451C38.6781 12.9502 38.5479 13.1292 38.4111 13.2822C38.2744 13.432 38.1361 13.5654 37.9961 13.6826C37.8561 13.7965 37.7194 13.9023 37.5859 14H36.7461V12.8574H37.0732C37.1676 12.7793 37.2669 12.6719 37.3711 12.5352C37.4785 12.3984 37.5794 12.2145 37.6738 11.9834C37.7715 11.749 37.8561 11.4528 37.9277 11.0947C38.0026 10.7367 38.0579 10.3005 38.0938 9.78613L38.2842 6.89062ZM44.1924 11.4121V11.3096C44.1924 10.9222 44.2477 10.5658 44.3584 10.2402C44.4691 9.91146 44.6302 9.62663 44.8418 9.38574C45.0534 9.14486 45.3138 8.95768 45.623 8.82422C45.9323 8.6875 46.2871 8.61914 46.6875 8.61914C47.0879 8.61914 47.4443 8.6875 47.7568 8.82422C48.0693 8.95768 48.3314 9.14486 48.543 9.38574C48.7578 9.62663 48.9206 9.91146 49.0312 10.2402C49.1419 10.5658 49.1973 10.9222 49.1973 11.3096V11.4121C49.1973 11.7962 49.1419 12.1527 49.0312 12.4814C48.9206 12.807 48.7578 13.0918 48.543 13.3359C48.3314 13.5768 48.071 13.764 47.7617 13.8975C47.4525 14.0309 47.0977 14.0977 46.6973 14.0977C46.2969 14.0977 45.9404 14.0309 45.6279 13.8975C45.3187 13.764 45.0566 13.5768 44.8418 13.3359C44.6302 13.0918 44.4691 12.807 44.3584 12.4814C44.2477 12.1527 44.1924 11.7962 44.1924 11.4121ZM45.5986 11.3096V11.4121C45.5986 11.6335 45.6182 11.8402 45.6572 12.0322C45.6963 12.2243 45.7581 12.3936 45.8428 12.54C45.9307 12.6833 46.0446 12.7956 46.1846 12.877C46.3245 12.9583 46.4954 12.999 46.6973 12.999C46.8926 12.999 47.0602 12.9583 47.2002 12.877C47.3402 12.7956 47.4525 12.6833 47.5371 12.54C47.6217 12.3936 47.6836 12.2243 47.7227 12.0322C47.765 11.8402 47.7861 11.6335 47.7861 11.4121V11.3096C47.7861 11.0947 47.765 10.8929 47.7227 10.7041C47.6836 10.512 47.6201 10.3428 47.5322 10.1963C47.4476 10.0465 47.3353 9.92936 47.1953 9.84473C47.0553 9.76009 46.8861 9.71777 46.6875 9.71777C46.4889 9.71777 46.3197 9.76009 46.1797 9.84473C46.043 9.92936 45.9307 10.0465 45.8428 10.1963C45.7581 10.3428 45.6963 10.512 45.6572 10.7041C45.6182 10.8929 45.5986 11.0947 45.5986 11.3096ZM53.2988 6.39258H54.4365C54.4365 6.65625 54.404 6.88249 54.3389 7.07129C54.2738 7.25684 54.1696 7.41634 54.0264 7.5498C53.8831 7.68001 53.6911 7.79069 53.4502 7.88184C53.2093 7.97298 52.9115 8.05111 52.5566 8.11621C52.2832 8.17155 52.0456 8.2627 51.8438 8.38965C51.6452 8.5166 51.4808 8.69076 51.3506 8.91211C51.2236 9.13021 51.1325 9.4069 51.0771 9.74219C51.0218 10.0742 51.0023 10.4746 51.0186 10.9434V11.1777L49.9248 11.3291V11.0947C49.9281 10.4567 49.985 9.90169 50.0957 9.42969C50.2096 8.95768 50.3708 8.56055 50.5791 8.23828C50.7874 7.91276 51.0381 7.65397 51.3311 7.46191C51.624 7.2666 51.9495 7.12988 52.3076 7.05176C52.5485 6.99967 52.7406 6.94922 52.8838 6.90039C53.0303 6.84831 53.1361 6.7832 53.2012 6.70508C53.2663 6.62695 53.2988 6.52279 53.2988 6.39258ZM52.6836 9.01465C53.0417 9.01465 53.359 9.0765 53.6357 9.2002C53.9124 9.32064 54.1452 9.49154 54.334 9.71289C54.5228 9.93424 54.666 10.1947 54.7637 10.4941C54.8613 10.7936 54.9102 11.1208 54.9102 11.4756V11.5781C54.9102 11.9395 54.8548 12.2747 54.7441 12.584C54.6367 12.89 54.4772 13.1569 54.2656 13.3848C54.054 13.6126 53.7936 13.79 53.4844 13.917C53.1751 14.0407 52.8219 14.1025 52.4248 14.1025C52.0244 14.1025 51.668 14.0358 51.3555 13.9023C51.0462 13.7656 50.7842 13.5752 50.5693 13.3311C50.3577 13.0837 50.1966 12.7956 50.0859 12.4668C49.9785 12.1348 49.9248 11.7734 49.9248 11.3828V11.2754C49.9248 11.2201 49.9492 11.1663 49.998 11.1143C50.0501 11.0589 50.1104 10.9971 50.1787 10.9287C50.2503 10.8604 50.3138 10.7741 50.3691 10.6699C50.5645 10.3086 50.7777 10.0059 51.0088 9.76172C51.2399 9.51432 51.4922 9.32878 51.7656 9.20508C52.0423 9.07812 52.3483 9.01465 52.6836 9.01465ZM52.415 10.1133C52.1514 10.1133 51.9398 10.1768 51.7803 10.3037C51.6208 10.4274 51.5052 10.5934 51.4336 10.8018C51.3652 11.0068 51.3311 11.2314 51.3311 11.4756V11.5781C51.3311 11.7767 51.3506 11.9622 51.3896 12.1348C51.4287 12.304 51.4906 12.4554 51.5752 12.5889C51.6598 12.7191 51.7721 12.8216 51.9121 12.8965C52.0521 12.9681 52.223 13.0039 52.4248 13.0039C52.6201 13.0039 52.7861 12.9681 52.9229 12.8965C53.0628 12.8216 53.1751 12.7191 53.2598 12.5889C53.3444 12.4554 53.4062 12.304 53.4453 12.1348C53.4844 11.9622 53.5039 11.7767 53.5039 11.5781V11.4756C53.5039 11.29 53.4844 11.1159 53.4453 10.9531C53.4062 10.7871 53.3444 10.6423 53.2598 10.5186C53.1751 10.3916 53.0628 10.2923 52.9229 10.2207C52.7829 10.1491 52.6136 10.1133 52.415 10.1133ZM58.6162 12.8086V10.4551C58.6162 10.2858 58.5885 10.141 58.5332 10.0205C58.4779 9.89681 58.3916 9.80078 58.2744 9.73242C58.1605 9.66406 58.0124 9.62988 57.8301 9.62988C57.6738 9.62988 57.5387 9.65755 57.4248 9.71289C57.3109 9.76497 57.223 9.84147 57.1611 9.94238C57.0993 10.04 57.0684 10.1556 57.0684 10.2891H55.6621C55.6621 10.0645 55.7142 9.85124 55.8184 9.64941C55.9225 9.44759 56.0739 9.27018 56.2725 9.11719C56.471 8.96094 56.707 8.83887 56.9805 8.75098C57.2572 8.66309 57.5664 8.61914 57.9082 8.61914C58.3184 8.61914 58.6829 8.6875 59.002 8.82422C59.321 8.96094 59.5716 9.16602 59.7539 9.43945C59.9395 9.71289 60.0322 10.0547 60.0322 10.4648V12.7256C60.0322 13.0153 60.0501 13.2529 60.0859 13.4385C60.1217 13.6208 60.1738 13.7803 60.2422 13.917V14H58.8213C58.7529 13.8568 58.7008 13.6777 58.665 13.4629C58.6325 13.2448 58.6162 13.0267 58.6162 12.8086ZM58.8018 10.7822L58.8115 11.5781H58.0254C57.8398 11.5781 57.6787 11.5993 57.542 11.6416C57.4053 11.6839 57.293 11.7441 57.2051 11.8223C57.1172 11.8971 57.0521 11.985 57.0098 12.0859C56.9707 12.1868 56.9512 12.2975 56.9512 12.418C56.9512 12.5384 56.9788 12.6475 57.0342 12.7451C57.0895 12.8395 57.1693 12.9144 57.2734 12.9697C57.3776 13.0218 57.4997 13.0479 57.6396 13.0479C57.8512 13.0479 58.0352 13.0055 58.1914 12.9209C58.3477 12.8363 58.4681 12.7321 58.5527 12.6084C58.6406 12.4847 58.6862 12.3675 58.6895 12.2568L59.0605 12.8525C59.0085 12.986 58.9368 13.1243 58.8457 13.2676C58.7578 13.4108 58.6455 13.5459 58.5088 13.6729C58.3721 13.7965 58.2077 13.8991 58.0156 13.9805C57.8236 14.0586 57.5957 14.0977 57.332 14.0977C56.9967 14.0977 56.6924 14.0309 56.4189 13.8975C56.1488 13.7607 55.9339 13.5736 55.7744 13.3359C55.6182 13.0951 55.54 12.8216 55.54 12.5156C55.54 12.2389 55.5921 11.9932 55.6963 11.7783C55.8005 11.5635 55.9535 11.3828 56.1553 11.2363C56.3604 11.0866 56.6159 10.9743 56.9219 10.8994C57.2279 10.8213 57.5827 10.7822 57.9863 10.7822H58.8018ZM63.748 11.793H62.0928L62.083 10.8701H63.4502C63.6325 10.8701 63.7806 10.8522 63.8945 10.8164C64.0085 10.7773 64.0915 10.7204 64.1436 10.6455C64.1989 10.5674 64.2266 10.473 64.2266 10.3623C64.2266 10.2646 64.2087 10.1816 64.1729 10.1133C64.1403 10.0417 64.0898 9.98307 64.0215 9.9375C63.9531 9.89193 63.8669 9.85938 63.7627 9.83984C63.6618 9.81706 63.543 9.80566 63.4062 9.80566H62.6152V14H61.209V8.7168H63.4062C63.7513 8.7168 64.0605 8.74772 64.334 8.80957C64.6074 8.86816 64.8402 8.95768 65.0322 9.07812C65.2275 9.19857 65.3757 9.35156 65.4766 9.53711C65.5807 9.7194 65.6328 9.93587 65.6328 10.1865C65.6328 10.3493 65.5954 10.5023 65.5205 10.6455C65.4489 10.7887 65.3415 10.9157 65.1982 11.0264C65.055 11.137 64.8776 11.2282 64.666 11.2998C64.4577 11.3682 64.2168 11.4105 63.9434 11.4268L63.748 11.793ZM63.748 14H61.7461L62.2295 12.9111H63.748C63.9206 12.9111 64.0622 12.89 64.1729 12.8477C64.2835 12.8053 64.3649 12.7435 64.417 12.6621C64.4723 12.5775 64.5 12.4766 64.5 12.3594C64.5 12.2454 64.4756 12.1462 64.4268 12.0615C64.3779 11.9769 64.2982 11.9118 64.1875 11.8662C64.0801 11.8174 63.9336 11.793 63.748 11.793H62.4346L62.4443 10.8701H63.9385L64.2803 11.2412C64.6514 11.264 64.9574 11.334 65.1982 11.4512C65.4391 11.5684 65.6165 11.7181 65.7305 11.9004C65.8477 12.0794 65.9062 12.2764 65.9062 12.4912C65.9062 12.7419 65.859 12.9616 65.7646 13.1504C65.6702 13.3392 65.5303 13.4971 65.3447 13.624C65.1624 13.7477 64.9378 13.8421 64.6709 13.9072C64.404 13.9691 64.0964 14 63.748 14ZM68.1719 12.0371L69.9443 8.7168H71.3506V14H69.9443V10.6748L68.1719 14H66.7656V8.7168H68.1719V12.0371ZM75.125 8.7168V14H73.7139V8.7168H75.125ZM76.8242 8.7168V9.80566H72.0391V8.7168H76.8242ZM78.5137 10.2842H80.0469C80.5286 10.2842 80.9388 10.3639 81.2773 10.5234C81.6191 10.6797 81.8796 10.8978 82.0586 11.1777C82.2409 11.4577 82.332 11.7816 82.332 12.1494C82.332 12.4163 82.2799 12.6637 82.1758 12.8916C82.0749 13.1162 81.9268 13.3115 81.7314 13.4775C81.5361 13.6436 81.2969 13.7721 81.0137 13.8633C80.7305 13.9544 80.4082 14 80.0469 14H77.6348V8.7168H79.0459V12.9062H80.0469C80.2585 12.9062 80.4277 12.8721 80.5547 12.8037C80.6849 12.7321 80.7793 12.6393 80.8379 12.5254C80.8997 12.4115 80.9307 12.2878 80.9307 12.1543C80.9307 12.0143 80.8997 11.8874 80.8379 11.7734C80.7793 11.6562 80.6849 11.5618 80.5547 11.4902C80.4277 11.4186 80.2585 11.3828 80.0469 11.3828H78.5137V10.2842ZM39.5146 21.793H37.8594L37.8496 20.8701H39.2168C39.3991 20.8701 39.5472 20.8522 39.6611 20.8164C39.7751 20.7773 39.8581 20.7204 39.9102 20.6455C39.9655 20.5674 39.9932 20.473 39.9932 20.3623C39.9932 20.2646 39.9753 20.1816 39.9395 20.1133C39.9069 20.0417 39.8564 19.9831 39.7881 19.9375C39.7197 19.8919 39.6335 19.8594 39.5293 19.8398C39.4284 19.8171 39.3096 19.8057 39.1729 19.8057H38.3818V24H36.9756V18.7168H39.1729C39.5179 18.7168 39.8271 18.7477 40.1006 18.8096C40.374 18.8682 40.6068 18.9577 40.7988 19.0781C40.9941 19.1986 41.1423 19.3516 41.2432 19.5371C41.3473 19.7194 41.3994 19.9359 41.3994 20.1865C41.3994 20.3493 41.362 20.5023 41.2871 20.6455C41.2155 20.7887 41.1081 20.9157 40.9648 21.0264C40.8216 21.137 40.6442 21.2282 40.4326 21.2998C40.2243 21.3682 39.9834 21.4105 39.71 21.4268L39.5146 21.793ZM39.5146 24H37.5127L37.9961 22.9111H39.5146C39.6872 22.9111 39.8288 22.89 39.9395 22.8477C40.0501 22.8053 40.1315 22.7435 40.1836 22.6621C40.2389 22.5775 40.2666 22.4766 40.2666 22.3594C40.2666 22.2454 40.2422 22.1462 40.1934 22.0615C40.1445 21.9769 40.0648 21.9118 39.9541 21.8662C39.8467 21.8174 39.7002 21.793 39.5146 21.793H38.2012L38.2109 20.8701H39.7051L40.0469 21.2412C40.418 21.264 40.724 21.334 40.9648 21.4512C41.2057 21.5684 41.3831 21.7181 41.4971 21.9004C41.6143 22.0794 41.6729 22.2764 41.6729 22.4912C41.6729 22.7419 41.6257 22.9616 41.5312 23.1504C41.4368 23.3392 41.2969 23.4971 41.1113 23.624C40.929 23.7477 40.7044 23.8421 40.4375 23.9072C40.1706 23.9691 39.863 24 39.5146 24ZM46.5264 18.7168V24H45.1201V18.7168H46.5264ZM49.959 18.7168L47.6836 22.0225H46.2773L46.1064 20.7236H47.0391L48.1768 18.7168H49.959ZM48.2402 24L46.9414 21.7686L48.167 21.0898L50.125 24H48.2402ZM50.2031 21.4121V21.3096C50.2031 20.9222 50.2585 20.5658 50.3691 20.2402C50.4798 19.9115 50.641 19.6266 50.8525 19.3857C51.0641 19.1449 51.3245 18.9577 51.6338 18.8242C51.943 18.6875 52.2979 18.6191 52.6982 18.6191C53.0986 18.6191 53.4551 18.6875 53.7676 18.8242C54.0801 18.9577 54.3421 19.1449 54.5537 19.3857C54.7686 19.6266 54.9313 19.9115 55.042 20.2402C55.1527 20.5658 55.208 20.9222 55.208 21.3096V21.4121C55.208 21.7962 55.1527 22.1527 55.042 22.4814C54.9313 22.807 54.7686 23.0918 54.5537 23.3359C54.3421 23.5768 54.0817 23.764 53.7725 23.8975C53.4632 24.0309 53.1084 24.0977 52.708 24.0977C52.3076 24.0977 51.9512 24.0309 51.6387 23.8975C51.3294 23.764 51.0674 23.5768 50.8525 23.3359C50.641 23.0918 50.4798 22.807 50.3691 22.4814C50.2585 22.1527 50.2031 21.7962 50.2031 21.4121ZM51.6094 21.3096V21.4121C51.6094 21.6335 51.6289 21.8402 51.668 22.0322C51.707 22.2243 51.7689 22.3936 51.8535 22.54C51.9414 22.6833 52.0553 22.7956 52.1953 22.877C52.3353 22.9583 52.5062 22.999 52.708 22.999C52.9033 22.999 53.071 22.9583 53.2109 22.877C53.3509 22.7956 53.4632 22.6833 53.5479 22.54C53.6325 22.3936 53.6943 22.2243 53.7334 22.0322C53.7757 21.8402 53.7969 21.6335 53.7969 21.4121V21.3096C53.7969 21.0947 53.7757 20.8929 53.7334 20.7041C53.6943 20.512 53.6309 20.3428 53.543 20.1963C53.4583 20.0465 53.346 19.9294 53.2061 19.8447C53.0661 19.7601 52.8968 19.7178 52.6982 19.7178C52.4997 19.7178 52.3304 19.7601 52.1904 19.8447C52.0537 19.9294 51.9414 20.0465 51.8535 20.1963C51.7689 20.3428 51.707 20.512 51.668 20.7041C51.6289 20.8929 51.6094 21.0947 51.6094 21.3096ZM57.4785 19.7324V26.0312H56.0723V18.7168H57.376L57.4785 19.7324ZM60.8232 21.2998V21.4023C60.8232 21.7865 60.7777 22.1429 60.6865 22.4717C60.5986 22.8005 60.4684 23.0869 60.2959 23.3311C60.1234 23.5719 59.9085 23.7607 59.6514 23.8975C59.3975 24.0309 59.1045 24.0977 58.7725 24.0977C58.4502 24.0977 58.1702 24.0326 57.9326 23.9023C57.695 23.7721 57.4948 23.5898 57.332 23.3555C57.1725 23.1178 57.0439 22.8428 56.9463 22.5303C56.8486 22.2178 56.7738 21.8825 56.7217 21.5244V21.2559C56.7738 20.8717 56.8486 20.5202 56.9463 20.2012C57.0439 19.8789 57.1725 19.6006 57.332 19.3662C57.4948 19.1286 57.6934 18.9447 57.9277 18.8145C58.1654 18.6842 58.4437 18.6191 58.7627 18.6191C59.098 18.6191 59.3926 18.6826 59.6465 18.8096C59.9036 18.9365 60.1185 19.1188 60.291 19.3564C60.4668 19.5941 60.5986 19.8773 60.6865 20.2061C60.7777 20.5348 60.8232 20.8994 60.8232 21.2998ZM59.4121 21.4023V21.2998C59.4121 21.0752 59.3926 20.8685 59.3535 20.6797C59.3177 20.4876 59.2591 20.32 59.1777 20.1768C59.0996 20.0335 58.9954 19.9229 58.8652 19.8447C58.7383 19.7633 58.5837 19.7227 58.4014 19.7227C58.2093 19.7227 58.0449 19.7536 57.9082 19.8154C57.7747 19.8773 57.6657 19.9668 57.5811 20.084C57.4964 20.2012 57.4329 20.3411 57.3906 20.5039C57.3483 20.6667 57.3223 20.8506 57.3125 21.0557V21.7344C57.3288 21.9753 57.3743 22.1917 57.4492 22.3838C57.5241 22.5726 57.6396 22.7223 57.7959 22.833C57.9521 22.9437 58.1572 22.999 58.4111 22.999C58.5967 22.999 58.7529 22.9583 58.8799 22.877C59.0068 22.7923 59.1094 22.6768 59.1875 22.5303C59.2689 22.3838 59.3258 22.2145 59.3584 22.0225C59.3942 21.8304 59.4121 21.6237 59.4121 21.4023ZM64.0508 21.4805H63.0059V20.8506H63.7529C63.9287 20.8506 64.0687 20.8262 64.1729 20.7773C64.2803 20.7285 64.3568 20.6602 64.4023 20.5723C64.4512 20.4811 64.4756 20.3786 64.4756 20.2646C64.4756 20.1637 64.4544 20.0677 64.4121 19.9766C64.373 19.8822 64.3014 19.8057 64.1973 19.7471C64.0964 19.6852 63.9531 19.6543 63.7676 19.6543C63.6146 19.6543 63.4779 19.6771 63.3574 19.7227C63.2402 19.7682 63.1475 19.835 63.0791 19.9229C63.014 20.0075 62.9814 20.11 62.9814 20.2305H61.5703C61.5703 19.8952 61.6663 19.6087 61.8584 19.3711C62.0505 19.1302 62.3076 18.9463 62.6299 18.8193C62.9521 18.6891 63.3053 18.624 63.6895 18.624C64.0247 18.624 64.3275 18.6582 64.5977 18.7266C64.8678 18.7917 65.099 18.8893 65.291 19.0195C65.4831 19.1497 65.6296 19.3109 65.7305 19.5029C65.8346 19.6917 65.8867 19.9115 65.8867 20.1621C65.8867 20.3411 65.8444 20.5104 65.7598 20.6699C65.6751 20.8294 65.5531 20.971 65.3936 21.0947C65.234 21.2152 65.0404 21.3096 64.8125 21.3779C64.5879 21.4463 64.334 21.4805 64.0508 21.4805ZM63.0059 21.1289H64.0508C64.3665 21.1289 64.6432 21.1598 64.8809 21.2217C65.1217 21.2803 65.3236 21.3682 65.4863 21.4854C65.6491 21.6025 65.7712 21.7474 65.8525 21.9199C65.9372 22.0892 65.9795 22.2845 65.9795 22.5059C65.9795 22.7565 65.9242 22.9811 65.8135 23.1797C65.7028 23.375 65.5449 23.541 65.3398 23.6777C65.1348 23.8145 64.8923 23.9186 64.6123 23.9902C64.3324 24.0618 64.0247 24.0977 63.6895 24.0977C63.3314 24.0977 62.9831 24.0391 62.6445 23.9219C62.306 23.8047 62.0277 23.624 61.8096 23.3799C61.5947 23.1357 61.4873 22.8216 61.4873 22.4375H62.8984C62.8984 22.5482 62.931 22.6523 62.9961 22.75C63.0612 22.8477 63.1589 22.9258 63.2891 22.9844C63.4193 23.0397 63.5804 23.0674 63.7725 23.0674C63.9645 23.0674 64.1191 23.0365 64.2363 22.9746C64.3535 22.9128 64.4382 22.8314 64.4902 22.7305C64.5456 22.6263 64.5732 22.5189 64.5732 22.4082C64.5732 22.252 64.5423 22.125 64.4805 22.0273C64.4219 21.9297 64.3307 21.8581 64.207 21.8125C64.0866 21.7669 63.9352 21.7441 63.7529 21.7441H63.0059V21.1289ZM68.2451 22.0371L70.0176 18.7168H71.4238V24H70.0176V20.6748L68.2451 24H66.8389V18.7168H68.2451V22.0371ZM76.126 20.8506V21.9443H73.4404V20.8506H76.126ZM73.9092 18.7168V24H72.5029V18.7168H73.9092ZM77.0781 18.7168V24H75.667V18.7168H77.0781ZM79.7393 23.4043L81.1406 18.7168H82.6494L80.5254 24.7959C80.4798 24.9294 80.418 25.0726 80.3398 25.2256C80.265 25.3786 80.1624 25.5234 80.0322 25.6602C79.9053 25.8001 79.7441 25.9141 79.5488 26.002C79.3568 26.0898 79.1208 26.1338 78.8408 26.1338C78.7074 26.1338 78.5983 26.1257 78.5137 26.1094C78.429 26.0931 78.3281 26.0703 78.2109 26.041V25.0107C78.2467 25.0107 78.2842 25.0107 78.3232 25.0107C78.3623 25.014 78.3997 25.0156 78.4355 25.0156C78.6211 25.0156 78.7725 24.9945 78.8896 24.9521C79.0068 24.9098 79.1012 24.8447 79.1729 24.7568C79.2445 24.6722 79.3014 24.5615 79.3438 24.4248L79.7393 23.4043ZM79.1533 18.7168L80.3008 22.5449L80.501 24.0342L79.5439 24.1367L77.6445 18.7168H79.1533Z" fill="white"/>
</svg>
