<svg width="30" height="30" viewBox="0 0 30 30" fill="none" xmlns="http://www.w3.org/2000/svg">
<rect width="30" height="30" rx="4" fill="#666666" fill-opacity="0.6"/>
<path d="M16.8081 14.2467C16.8081 14.2467 16.9337 14.1212 17.1848 13.87C17.4359 13.6189 17.5615 13.1385 17.5615 12.4286C17.5615 11.7188 17.3103 11.1128 16.8081 10.6106C16.3059 10.1083 15.6998 9.85721 14.99 9.85721C14.2802 9.85721 13.6742 10.1083 13.1719 10.6106C12.6697 11.1128 12.4186 11.7188 12.4186 12.4286C12.4186 13.1385 12.6697 13.7445 13.1719 14.2467C13.6742 14.749 14.2802 15.0001 14.99 15.0001C15.6998 15.0001 16.3059 14.749 16.8081 14.2467ZM20.1329 12.4286C20.1329 13.1586 20.0224 13.7579 19.8014 14.2266L16.1452 22.0012C16.038 22.2222 15.879 22.3963 15.668 22.5235C15.4571 22.6507 15.2311 22.7144 14.99 22.7144C14.749 22.7144 14.5229 22.6507 14.312 22.5235C14.1011 22.3963 13.9454 22.2222 13.8449 22.0012L10.1786 14.2266C9.95766 13.7579 9.84717 13.1586 9.84717 12.4286C9.84717 11.009 10.3494 9.79694 11.3539 8.79248C12.3583 7.78802 13.5704 7.28578 14.99 7.28578C16.4097 7.28578 17.6217 7.78802 18.6262 8.79248C19.6306 9.79694 20.1329 11.009 20.1329 12.4286Z" fill="white"/>
</svg>
