<svg width="16" height="15" viewBox="0 0 16 15" fill="none" xmlns="http://www.w3.org/2000/svg">
<path d="M15.1998 6.74999V8.24999C15.1998 8.32291 15.1763 8.38281 15.1294 8.42968C15.0825 8.47656 15.0226 8.49999 14.9496 8.49999H5.19286V10.25C5.19286 10.3594 5.14334 10.4349 5.04432 10.4766C4.94529 10.5182 4.85408 10.5052 4.77069 10.4375L1.76861 7.70312C1.71649 7.65104 1.69043 7.59114 1.69043 7.52343C1.69043 7.45052 1.71649 7.38802 1.76861 7.33593L4.77069 4.57031C4.85408 4.49739 4.94529 4.48177 5.04432 4.52343C5.14334 4.57031 5.19286 4.64583 5.19286 4.74999V6.49999H14.9496C15.0226 6.49999 15.0825 6.52343 15.1294 6.57031C15.1763 6.61718 15.1998 6.67708 15.1998 6.74999Z" fill="white"/>
</svg>
