<svg width="16" height="23" viewBox="0 0 16 23" fill="none" xmlns="http://www.w3.org/2000/svg">
<path d="M14.0032 16.6547C14.0851 16.7366 14.126 16.8307 14.126 16.9371C14.126 17.0435 14.0851 17.1376 14.0032 17.2194L13.3894 17.8333C13.3076 17.9151 13.2134 17.9561 13.107 17.9561C13.0006 17.9561 12.9065 17.9151 12.8247 17.8333L7.9999 13.0085L3.17512 17.8333C3.09327 17.9151 2.99915 17.9561 2.89275 17.9561C2.78635 17.9561 2.69223 17.9151 2.61039 17.8333L1.99655 17.2194C1.9147 17.1376 1.87378 17.0435 1.87378 16.9371C1.87378 16.8307 1.9147 16.7366 1.99655 16.6547L7.71753 10.9337C7.79937 10.8519 7.8935 10.811 7.9999 10.811C8.10629 10.811 8.20042 10.8519 8.28226 10.9337L14.0032 16.6547ZM14.0032 11.9404C14.0851 12.0223 14.126 12.1164 14.126 12.2228C14.126 12.3292 14.0851 12.4233 14.0032 12.5052L13.3894 13.119C13.3076 13.2008 13.2134 13.2418 13.107 13.2418C13.0006 13.2418 12.9065 13.2008 12.8247 13.119L7.9999 8.29422L3.17512 13.119C3.09327 13.2008 2.99915 13.2418 2.89275 13.2418C2.78635 13.2418 2.69223 13.2008 2.61039 13.119L1.99655 12.5052C1.9147 12.4233 1.87378 12.3292 1.87378 12.2228C1.87378 12.1164 1.9147 12.0223 1.99655 11.9404L7.71753 6.21945C7.79937 6.1376 7.8935 6.09668 7.9999 6.09668C8.10629 6.09668 8.20042 6.1376 8.28226 6.21945L14.0032 11.9404Z" fill="white"/>
</svg>
