<svg width="9" height="14" viewBox="0 0 9 14" fill="none" xmlns="http://www.w3.org/2000/svg">
<path d="M5.44031 7.32031C5.49239 7.3724 5.51843 7.43229 5.51843 7.5C5.51843 7.56771 5.49239 7.6276 5.44031 7.67969L1.79968 11.3203C1.7476 11.3724 1.6877 11.3984 1.62 11.3984C1.55229 11.3984 1.49239 11.3724 1.44031 11.3203L1.04968 10.9297C0.997599 10.8776 0.971558 10.8177 0.971558 10.75C0.971558 10.6823 0.997599 10.6224 1.04968 10.5703L4.12 7.5L1.04968 4.42969C0.997599 4.3776 0.971558 4.31771 0.971558 4.25C0.971558 4.18229 0.997599 4.1224 1.04968 4.07031L1.44031 3.67969C1.49239 3.6276 1.55229 3.60156 1.62 3.60156C1.6877 3.60156 1.7476 3.6276 1.79968 3.67969L5.44031 7.32031ZM8.44031 7.32031C8.49239 7.3724 8.51843 7.43229 8.51843 7.5C8.51843 7.56771 8.49239 7.6276 8.44031 7.67969L4.79968 11.3203C4.7476 11.3724 4.6877 11.3984 4.62 11.3984C4.55229 11.3984 4.49239 11.3724 4.44031 11.3203L4.04968 10.9297C3.9976 10.8776 3.97156 10.8177 3.97156 10.75C3.97156 10.6823 3.9976 10.6224 4.04968 10.5703L7.12 7.5L4.04968 4.42969C3.9976 4.3776 3.97156 4.31771 3.97156 4.25C3.97156 4.18229 3.9976 4.1224 4.04968 4.07031L4.44031 3.67969C4.49239 3.6276 4.55229 3.60156 4.62 3.60156C4.6877 3.60156 4.7476 3.6276 4.79968 3.67969L8.44031 7.32031Z" fill="white"/>
</svg>
