<svg width="14" height="16" viewBox="0 0 14 16" fill="none" xmlns="http://www.w3.org/2000/svg">
<path d="M1.07704 14.3187H3.48776V11.908H1.07704V14.3187ZM4.02347 14.3187H6.70204V11.908H4.02347V14.3187ZM1.07704 11.3723H3.48776V8.69371H1.07704V11.3723ZM4.02347 11.3723H6.70204V8.69371H4.02347V11.3723ZM1.07704 8.15799H3.48776V5.74728H1.07704V8.15799ZM7.23776 14.3187H9.91633V11.908H7.23776V14.3187ZM4.02347 8.15799H6.70204V5.74728H4.02347V8.15799ZM10.452 14.3187H12.8628V11.908H10.452V14.3187ZM7.23776 11.3723H9.91633V8.69371H7.23776V11.3723ZM4.29133 4.14014V1.72942C4.29133 1.65688 4.26482 1.5941 4.21181 1.54109C4.1588 1.48807 4.09602 1.46157 4.02347 1.46157H3.48776C3.41521 1.46157 3.35243 1.48807 3.29942 1.54109C3.24641 1.5941 3.2199 1.65688 3.2199 1.72942V4.14014C3.2199 4.21268 3.24641 4.27546 3.29942 4.32847C3.35243 4.38149 3.41521 4.40799 3.48776 4.40799H4.02347C4.09602 4.40799 4.1588 4.38149 4.21181 4.32847C4.26482 4.27546 4.29133 4.21268 4.29133 4.14014ZM10.452 11.3723H12.8628V8.69371H10.452V11.3723ZM7.23776 8.15799H9.91633V5.74728H7.23776V8.15799ZM10.452 8.15799H12.8628V5.74728H10.452V8.15799ZM10.7199 4.14014V1.72942C10.7199 1.65688 10.6934 1.5941 10.6404 1.54109C10.5874 1.48807 10.5246 1.46157 10.452 1.46157H9.91633C9.84378 1.46157 9.78101 1.48807 9.72799 1.54109C9.67498 1.5941 9.64847 1.65688 9.64847 1.72942V4.14014C9.64847 4.21268 9.67498 4.27546 9.72799 4.32847C9.78101 4.38149 9.84378 4.40799 9.91633 4.40799H10.452C10.5246 4.40799 10.5874 4.38149 10.6404 4.32847C10.6934 4.27546 10.7199 4.21268 10.7199 4.14014ZM13.9342 3.60442V14.3187C13.9342 14.6089 13.8282 14.86 13.6161 15.0721C13.4041 15.2841 13.1529 15.3901 12.8628 15.3901H1.07704C0.786865 15.3901 0.535749 15.2841 0.323696 15.0721C0.111642 14.86 0.00561523 14.6089 0.00561523 14.3187V3.60442C0.00561523 3.31424 0.111642 3.06313 0.323696 2.85107C0.535749 2.63902 0.786865 2.53299 1.07704 2.53299H2.14847V1.72942C2.14847 1.36112 2.27961 1.04583 2.54189 0.783552C2.80416 0.521276 3.11945 0.390137 3.48776 0.390137H4.02347C4.39178 0.390137 4.70707 0.521276 4.96934 0.783552C5.23162 1.04583 5.36276 1.36112 5.36276 1.72942V2.53299H8.57704V1.72942C8.57704 1.36112 8.70818 1.04583 8.97046 0.783552C9.23274 0.521276 9.54803 0.390137 9.91633 0.390137H10.452C10.8203 0.390137 11.1356 0.521276 11.3979 0.783552C11.6602 1.04583 11.7913 1.36112 11.7913 1.72942V2.53299H12.8628C13.1529 2.53299 13.4041 2.63902 13.6161 2.85107C13.8282 3.06313 13.9342 3.31424 13.9342 3.60442Z" fill="#B7B7B7"/>
</svg>
