<svg width="17" height="18" viewBox="0 0 17 18" fill="none" xmlns="http://www.w3.org/2000/svg">
<path d="M14.4078 3.36035H3.31213L4.49963 1.76465H13.2203L14.4078 3.36035ZM16.6158 3.65723L14.2408 0.50293C14.1666 0.403971 14.0739 0.32666 13.9625 0.270996C13.8512 0.215332 13.7337 0.1875 13.61 0.1875H4.10999C3.98629 0.1875 3.86877 0.215332 3.75745 0.270996C3.64612 0.32666 3.55334 0.403971 3.47913 0.50293L1.10413 3.67578C1.09176 3.70052 1.07629 3.72217 1.05774 3.74072C1.03918 3.75928 1.02372 3.78092 1.01135 3.80566C0.986613 3.86751 0.968058 3.92627 0.955688 3.98193C0.943319 4.0376 0.937134 4.09017 0.937134 4.13965V15.2354C0.937134 15.3962 0.952596 15.5508 0.983521 15.6992C1.01444 15.8477 1.06083 15.9961 1.12268 16.1445C1.18453 16.2806 1.25875 16.4136 1.34534 16.5435C1.43193 16.6733 1.53088 16.7939 1.64221 16.9053C1.75354 17.0166 1.87415 17.1156 2.00403 17.2021C2.13391 17.2887 2.26689 17.363 2.40295 17.4248C2.55139 17.4867 2.69983 17.533 2.84827 17.564C2.9967 17.5949 3.15133 17.6104 3.31213 17.6104H14.4078C14.5686 17.6104 14.7233 17.5949 14.8717 17.564C15.0201 17.533 15.1686 17.4867 15.317 17.4248C15.4531 17.363 15.5861 17.2887 15.7159 17.2021C15.8458 17.1156 15.9664 17.0166 16.0778 16.9053C16.1891 16.7939 16.288 16.6733 16.3746 16.5435C16.4612 16.4136 16.5354 16.2806 16.5973 16.1445C16.6591 15.9961 16.7055 15.8477 16.7365 15.6992C16.7674 15.5508 16.7828 15.3962 16.7828 15.2354V4.13965C16.7828 4.05306 16.7674 3.97266 16.7365 3.89844C16.7055 3.82422 16.6715 3.75 16.6344 3.67578C16.622 3.67578 16.6158 3.67578 16.6158 3.67578V3.65723ZM2.53284 4.9375H15.1871V15.2354C15.1871 15.2848 15.184 15.3343 15.1779 15.3838C15.1717 15.4333 15.1562 15.4827 15.1315 15.5322C15.1191 15.5817 15.0975 15.6281 15.0665 15.6714C15.0356 15.7147 15.0016 15.7549 14.9645 15.792C14.9274 15.8291 14.8872 15.8631 14.8439 15.894C14.8006 15.925 14.7542 15.9466 14.7047 15.959C14.6552 15.9837 14.6058 15.9992 14.5563 16.0054C14.5068 16.0116 14.4573 16.0146 14.4078 16.0146H3.31213C3.26265 16.0146 3.21318 16.0116 3.1637 16.0054C3.11422 15.9992 3.06474 15.9837 3.01526 15.959C2.96578 15.9466 2.91939 15.925 2.8761 15.894C2.8328 15.8631 2.7926 15.8291 2.75549 15.792C2.71838 15.7549 2.68437 15.7147 2.65344 15.6714C2.62252 15.6281 2.60087 15.5817 2.5885 15.5322C2.56376 15.4827 2.5483 15.4333 2.54211 15.3838C2.53593 15.3343 2.53284 15.2848 2.53284 15.2354V4.9375ZM11.235 7.3125C11.235 7.47331 11.2195 7.63102 11.1886 7.78564C11.1577 7.94027 11.1113 8.08561 11.0494 8.22168C10.9876 8.37012 10.9134 8.50928 10.8268 8.63916C10.7402 8.76904 10.6412 8.88346 10.5299 8.98242C10.4309 9.09375 10.3165 9.19271 10.1866 9.2793C10.0568 9.36589 9.9176 9.4401 9.76917 9.50195C9.6331 9.5638 9.48775 9.61019 9.33313 9.64111C9.17851 9.67204 9.02079 9.6875 8.85999 9.6875C8.69918 9.6875 8.54146 9.67204 8.38684 9.64111C8.23222 9.61019 8.08687 9.5638 7.95081 9.50195C7.80237 9.4401 7.66321 9.36589 7.53333 9.2793C7.40344 9.19271 7.28902 9.09375 7.19006 8.98242C7.07874 8.88346 6.97978 8.76904 6.89319 8.63916C6.8066 8.50928 6.73238 8.37012 6.67053 8.22168C6.60868 8.08561 6.5623 7.94027 6.53137 7.78564C6.50045 7.63102 6.48499 7.47331 6.48499 7.3125C6.48499 7.08984 6.40767 6.9012 6.25305 6.74658C6.09843 6.59196 5.90979 6.51465 5.68713 6.51465C5.47685 6.51465 5.29439 6.59196 5.13977 6.74658C4.98515 6.9012 4.90784 7.08984 4.90784 7.3125C4.90784 7.58464 4.93258 7.84749 4.98206 8.10107C5.03153 8.35466 5.10575 8.59896 5.20471 8.83398C5.30367 9.06901 5.42428 9.29476 5.56653 9.51123C5.70878 9.7277 5.87268 9.92871 6.05823 10.1143C6.24377 10.2998 6.44478 10.4637 6.66125 10.606C6.87773 10.7482 7.10348 10.8688 7.3385 10.9678C7.57353 11.0667 7.81783 11.141 8.07141 11.1904C8.32499 11.2399 8.58785 11.2646 8.85999 11.2646C9.13212 11.2646 9.39498 11.2399 9.64856 11.1904C9.90214 11.141 10.1464 11.0667 10.3815 10.9678C10.6165 10.8688 10.8422 10.7482 11.0587 10.606C11.2752 10.4637 11.4762 10.2998 11.6617 10.1143C11.8473 9.92871 12.0112 9.7277 12.1534 9.51123C12.2957 9.29476 12.4163 9.06901 12.5153 8.83398C12.6142 8.59896 12.6884 8.35466 12.7379 8.10107C12.7874 7.84749 12.8121 7.58464 12.8121 7.3125C12.8121 7.08984 12.7348 6.9012 12.5802 6.74658C12.4256 6.59196 12.2431 6.51465 12.0328 6.51465C11.8102 6.51465 11.6215 6.59196 11.4669 6.74658C11.3123 6.9012 11.235 7.08984 11.235 7.3125Z" fill="white"/>
</svg>
