<svg width="16" height="16" viewBox="0 0 16 16" fill="none" xmlns="http://www.w3.org/2000/svg">
<path d="M5.14335 8.64764C5.14335 8.64764 5.19566 8.59532 5.30029 8.49069C5.40492 8.38606 5.45724 8.18586 5.45724 7.8901C5.45724 7.59434 5.35261 7.34183 5.14335 7.13257C4.93408 6.92331 4.68157 6.81867 4.38581 6.81867C4.09005 6.81867 3.83754 6.92331 3.62828 7.13257C3.41901 7.34183 3.31438 7.59434 3.31438 7.8901C3.31438 8.18586 3.41901 8.43837 3.62828 8.64764C3.83754 8.8569 4.09005 8.96153 4.38581 8.96153C4.68157 8.96153 4.93408 8.8569 5.14335 8.64764ZM8.35763 8.64764C8.35763 8.64764 8.40995 8.59532 8.51458 8.49069C8.61921 8.38606 8.67153 8.18586 8.67153 7.8901C8.67153 7.59434 8.56689 7.34183 8.35763 7.13257C8.14837 6.92331 7.89586 6.81867 7.6001 6.81867C7.30434 6.81867 7.05183 6.92331 6.84256 7.13257C6.6333 7.34183 6.52867 7.59434 6.52867 7.8901C6.52867 8.18586 6.6333 8.43837 6.84256 8.64764C7.05183 8.8569 7.30434 8.96153 7.6001 8.96153C7.89586 8.96153 8.14837 8.8569 8.35763 8.64764ZM11.5719 8.64764C11.5719 8.64764 11.6242 8.59532 11.7289 8.49069C11.8335 8.38606 11.8858 8.18586 11.8858 7.8901C11.8858 7.59434 11.7812 7.34183 11.5719 7.13257C11.3627 6.92331 11.1101 6.81867 10.8144 6.81867C10.5186 6.81867 10.2661 6.92331 10.0568 7.13257C9.84759 7.34183 9.74295 7.59434 9.74295 7.8901C9.74295 8.18586 9.84759 8.43837 10.0568 8.64764C10.2661 8.8569 10.5186 8.96153 10.8144 8.96153C11.1101 8.96153 11.3627 8.8569 11.5719 8.64764ZM14.0956 5.19897C14.0956 5.19897 14.263 5.40475 14.5979 5.8163C14.9327 6.22785 15.1001 6.91912 15.1001 7.8901C15.1001 8.86108 14.7653 9.75813 14.0956 10.5812C13.426 11.4043 12.5164 12.0544 11.3668 12.5316C10.2173 13.0087 8.9617 13.2472 7.6001 13.2472C6.98626 13.2472 6.39753 13.197 5.83391 13.0966C4.86851 14.062 3.65479 14.7009 2.19273 15.0134C1.90255 15.0692 1.6626 15.1055 1.47287 15.1222C1.4059 15.1278 1.34452 15.1111 1.28871 15.072C1.23291 15.033 1.19664 14.9827 1.1799 14.9214C1.15758 14.8376 1.21338 14.7344 1.34731 14.6116C1.37521 14.5837 1.44078 14.5238 1.54402 14.4317C1.64725 14.3396 1.7184 14.274 1.75746 14.235C1.79653 14.1959 1.8621 14.1248 1.95417 14.0215C2.04625 13.9183 2.11321 13.8304 2.15506 13.7578C2.19692 13.6853 2.25412 13.5821 2.32666 13.4481C2.3992 13.3142 2.45501 13.1803 2.49407 13.0464C2.53313 12.9124 2.57359 12.752 2.61544 12.565C2.6573 12.3781 2.69217 12.1758 2.72008 11.9582C1.90534 11.456 1.265 10.8519 0.799037 10.146C0.333078 9.44005 0.100098 8.68809 0.100098 7.8901C0.100098 6.91912 0.434919 6.02208 1.10456 5.19897C1.7742 4.37587 2.6838 3.72576 3.83336 3.24864C4.98291 2.77152 6.23849 2.53296 7.6001 2.53296C8.9617 2.53296 10.2173 2.77152 11.3668 3.24864C12.5164 3.72576 13.426 4.37587 14.0956 5.19897Z" fill="#B7B7B7"/>
</svg>
