<svg width="30" height="30" viewBox="0 0 30 30" fill="none" xmlns="http://www.w3.org/2000/svg">
<rect width="30" height="30" rx="4" fill="#666666" fill-opacity="0.6"/>
<path d="M22 13.5469V19.75C22 20.0938 21.8776 20.388 21.6328 20.6328C21.388 20.8776 21.0938 21 20.75 21H9.25C8.90625 21 8.61198 20.8776 8.36719 20.6328C8.1224 20.388 8 20.0938 8 19.75V13.5469C8.22917 13.8021 8.49219 14.0286 8.78906 14.2266C10.6745 15.5078 11.9688 16.4062 12.6719 16.9219C12.9688 17.1406 13.2096 17.3112 13.3945 17.4336C13.5794 17.556 13.8255 17.681 14.1328 17.8086C14.4401 17.9362 14.7266 18 14.9922 18H15H15.0078C15.2734 18 15.5599 17.9362 15.8672 17.8086C16.1745 17.681 16.4206 17.556 16.6055 17.4336C16.7904 17.3112 17.0312 17.1406 17.3281 16.9219C18.2135 16.2812 19.5104 15.3828 21.2188 14.2266C21.5156 14.0234 21.776 13.7969 22 13.5469ZM22 11.25C22 11.6615 21.8724 12.0547 21.6172 12.4297C21.362 12.8047 21.0443 13.125 20.6641 13.3906C18.7057 14.75 17.487 15.5964 17.0078 15.9297C16.9557 15.9661 16.8451 16.0456 16.6758 16.168C16.5065 16.2904 16.3659 16.3893 16.2539 16.4648C16.1419 16.5404 16.0065 16.625 15.8477 16.7188C15.6888 16.8125 15.5391 16.8828 15.3984 16.9297C15.2578 16.9766 15.1276 17 15.0078 17H15H14.9922C14.8724 17 14.7422 16.9766 14.6016 16.9297C14.4609 16.8828 14.3112 16.8125 14.1523 16.7188C13.9935 16.625 13.8581 16.5404 13.7461 16.4648C13.6341 16.3893 13.4935 16.2904 13.3242 16.168C13.1549 16.0456 13.0443 15.9661 12.9922 15.9297C12.5182 15.5964 11.8359 15.1211 10.9453 14.5039C10.0547 13.8867 9.52083 13.5156 9.34375 13.3906C9.02083 13.1719 8.71615 12.8711 8.42969 12.4883C8.14323 12.1055 8 11.75 8 11.4219C8 11.0156 8.10807 10.6771 8.32422 10.4062C8.54036 10.1354 8.84896 10 9.25 10H20.75C21.0885 10 21.3815 10.1224 21.6289 10.3672C21.8763 10.612 22 10.9062 22 11.25Z" fill="white"/>
</svg>
