<svg width="19" height="20" viewBox="0 0 19 20" fill="none" xmlns="http://www.w3.org/2000/svg">
<path d="M18.47 18.9922V17C18.47 16.6562 18.4387 16.3242 18.3762 16.0039C18.3137 15.6836 18.22 15.375 18.095 15.0781C17.97 14.7812 17.8137 14.4961 17.6262 14.2227C17.4387 13.9492 17.2356 13.6953 17.0168 13.4609C16.7825 13.2266 16.5286 13.0195 16.2551 12.8398C15.9817 12.6602 15.6887 12.5078 15.3762 12.3828C15.0793 12.2578 14.7708 12.1641 14.4504 12.1016C14.1301 12.0391 13.8059 12.0078 13.4778 12.0078H5.46216C5.13403 12.0078 4.80981 12.0391 4.4895 12.1016C4.16919 12.1641 3.8606 12.2578 3.56372 12.3828C3.25122 12.5078 2.95825 12.6602 2.68481 12.8398C2.41138 13.0195 2.16528 13.2266 1.94653 13.4609C1.71216 13.6953 1.50122 13.9492 1.31372 14.2227C1.12622 14.4961 0.969971 14.7812 0.844971 15.0781C0.719971 15.375 0.626221 15.6836 0.563721 16.0039C0.501221 16.3242 0.469971 16.6562 0.469971 17V18.9922C0.469971 19.2734 0.567627 19.5117 0.762939 19.707C0.958252 19.9023 1.19653 20 1.47778 20C1.74341 20 1.97388 19.9023 2.16919 19.707C2.3645 19.5117 2.46216 19.2734 2.46216 18.9922V17C2.46216 16.7969 2.48169 16.5977 2.52075 16.4023C2.55981 16.207 2.61841 16.0234 2.69653 15.8516C2.77466 15.6641 2.86841 15.4883 2.97778 15.3242C3.08716 15.1602 3.21216 15.0156 3.35278 14.8906C3.49341 14.75 3.64575 14.625 3.80981 14.5156C3.97388 14.4062 4.14185 14.3125 4.31372 14.2344C4.50122 14.1562 4.68872 14.0977 4.87622 14.0586C5.06372 14.0195 5.25903 14 5.46216 14H13.4778C13.6809 14 13.8762 14.0195 14.0637 14.0586C14.2512 14.0977 14.4387 14.1562 14.6262 14.2344C14.7981 14.3125 14.9661 14.4062 15.1301 14.5156C15.2942 14.625 15.4465 14.75 15.5872 14.8906C15.7278 15.0156 15.8528 15.1602 15.9622 15.3242C16.0715 15.4883 16.1653 15.6641 16.2434 15.8516C16.3215 16.0234 16.3801 16.207 16.4192 16.4023C16.4583 16.5977 16.4778 16.7969 16.4778 17V18.9922C16.4778 19.2734 16.5754 19.5117 16.7708 19.707C16.9661 19.9023 17.1965 20 17.4622 20C17.7434 20 17.9817 19.9023 18.177 19.707C18.3723 19.5117 18.47 19.2734 18.47 18.9922ZM14.4622 5C14.4622 4.65625 14.4309 4.32422 14.3684 4.00391C14.3059 3.68359 14.2122 3.375 14.0872 3.07812C13.9622 2.78125 13.8098 2.49609 13.6301 2.22266C13.4504 1.94922 13.2434 1.69531 13.009 1.46094C12.7747 1.22656 12.5208 1.01953 12.2473 0.839844C11.9739 0.660156 11.6887 0.507812 11.3918 0.382812C11.095 0.257812 10.7864 0.164062 10.4661 0.101562C10.1458 0.0390625 9.81372 0.0078125 9.46997 0.0078125C9.12622 0.0078125 8.79419 0.0390625 8.47388 0.101562C8.15356 0.164062 7.84497 0.257812 7.5481 0.382812C7.25122 0.507812 6.96606 0.660156 6.69263 0.839844C6.41919 1.01953 6.16528 1.22656 5.93091 1.46094C5.69653 1.69531 5.4895 1.94922 5.30981 2.22266C5.13013 2.49609 4.97778 2.78125 4.85278 3.07812C4.72778 3.375 4.63403 3.68359 4.57153 4.00391C4.50903 4.32422 4.47778 4.65625 4.47778 5C4.47778 5.34375 4.50903 5.67578 4.57153 5.99609C4.63403 6.31641 4.72778 6.625 4.85278 6.92188C4.97778 7.21875 5.13013 7.50391 5.30981 7.77734C5.4895 8.05078 5.69653 8.30469 5.93091 8.53906C6.16528 8.77344 6.41919 8.98047 6.69263 9.16016C6.96606 9.33984 7.25122 9.49219 7.5481 9.61719C7.84497 9.74219 8.15356 9.83594 8.47388 9.89844C8.79419 9.96094 9.12622 9.99219 9.46997 9.99219C9.81372 9.99219 10.1458 9.96094 10.4661 9.89844C10.7864 9.83594 11.095 9.74219 11.3918 9.61719C11.6887 9.49219 11.9739 9.33984 12.2473 9.16016C12.5208 8.98047 12.7747 8.77344 13.009 8.53906C13.2434 8.30469 13.4504 8.05078 13.6301 7.77734C13.8098 7.50391 13.9622 7.21875 14.0872 6.92188C14.2122 6.625 14.3059 6.31641 14.3684 5.99609C14.4309 5.67578 14.4622 5.34375 14.4622 5ZM12.47 5C12.47 5.20312 12.4504 5.40234 12.4114 5.59766C12.3723 5.79297 12.3137 5.97656 12.2356 6.14844C12.1575 6.33594 12.0637 6.51172 11.9543 6.67578C11.845 6.83984 11.72 6.98438 11.5793 7.10938C11.4543 7.25 11.3098 7.375 11.1458 7.48438C10.9817 7.59375 10.8059 7.6875 10.6184 7.76562C10.4465 7.84375 10.2629 7.90234 10.0676 7.94141C9.87231 7.98047 9.6731 8 9.46997 8C9.26685 8 9.06763 7.98047 8.87231 7.94141C8.677 7.90234 8.49341 7.84375 8.32153 7.76562C8.13403 7.6875 7.95825 7.59375 7.79419 7.48438C7.63013 7.375 7.4856 7.25 7.3606 7.10938C7.21997 6.98438 7.09497 6.83984 6.9856 6.67578C6.87622 6.51172 6.78247 6.33594 6.70435 6.14844C6.62622 5.97656 6.56763 5.79297 6.52856 5.59766C6.4895 5.40234 6.46997 5.20312 6.46997 5C6.46997 4.79688 6.4895 4.59766 6.52856 4.40234C6.56763 4.20703 6.62622 4.02344 6.70435 3.85156C6.78247 3.66406 6.87622 3.48828 6.9856 3.32422C7.09497 3.16016 7.21997 3.01562 7.3606 2.89062C7.4856 2.75 7.63013 2.625 7.79419 2.51562C7.95825 2.40625 8.13403 2.3125 8.32153 2.23438C8.49341 2.15625 8.677 2.09766 8.87231 2.05859C9.06763 2.01953 9.26685 2 9.46997 2C9.6731 2 9.87231 2.01953 10.0676 2.05859C10.2629 2.09766 10.4465 2.15625 10.6184 2.23438C10.8059 2.3125 10.9817 2.40625 11.1458 2.51562C11.3098 2.625 11.4543 2.75 11.5793 2.89062C11.72 3.01562 11.845 3.16016 11.9543 3.32422C12.0637 3.48828 12.1575 3.66406 12.2356 3.85156C12.3137 4.02344 12.3723 4.20703 12.4114 4.40234C12.4504 4.59766 12.47 4.79688 12.47 5Z" fill="white"/>
</svg>
