<svg width="262" height="54" viewBox="0 0 262 54" fill="none" xmlns="http://www.w3.org/2000/svg">
<g filter="url(#filter0_d_12_3830)">
<path fill-rule="evenodd" clip-rule="evenodd" d="M213.62 27.279C211.467 29.4312 211.529 32.9819 213.756 35.2097L224.513 45.9663C226.741 48.1941 230.291 48.2553 232.444 46.103L255.826 22.7211C257.978 20.5688 257.917 17.0182 255.689 14.7903L244.932 4.03374C242.705 1.80598 239.154 1.7447 237.002 3.89701L213.62 27.279ZM216.354 32.6117C215.612 31.8691 215.591 30.6855 216.309 29.9681L239.691 6.58616C240.408 5.86872 241.592 5.88914 242.334 6.63174L253.091 17.3883C253.834 18.131 253.854 19.3145 253.136 20.0319L229.755 43.4139C229.037 44.1313 227.854 44.1109 227.111 43.3683L216.354 32.6117ZM226.838 27.5068C226.095 26.7642 224.911 26.7439 224.194 27.4613C223.477 28.1787 223.497 29.3622 224.24 30.1048L225.584 31.4494L224.285 32.7484C223.568 33.4658 223.588 34.6494 224.331 35.392C225.073 36.1346 226.257 36.155 226.974 35.4376L228.273 34.1386L229.618 35.4831C230.36 36.2257 231.544 36.2461 232.261 35.5287C232.979 34.8113 232.958 33.6278 232.216 32.8851L230.871 31.5406L232.17 30.2416C232.888 29.5242 232.867 28.3406 232.125 27.598C231.382 26.8554 230.198 26.835 229.481 27.5524L228.182 28.8514L226.838 27.5068ZM239.246 19.1317C240.36 20.2456 240.391 22.021 239.315 23.0971C238.239 24.1732 236.463 24.1426 235.349 23.0287C234.236 21.9149 234.205 20.1395 235.281 19.0634C236.357 17.9873 238.133 18.0179 239.246 19.1317ZM244.511 17.9011C245.587 16.825 245.556 15.0496 244.442 13.9357C243.328 12.8219 241.553 12.7913 240.477 13.8674C239.401 14.9435 239.431 16.7189 240.545 17.8327C241.659 18.9466 243.435 18.9772 244.511 17.9011Z" fill="white"/>
</g>
<g filter="url(#filter1_d_12_3830)">
<path d="M13.3164 27.3965H17.4043C17.3223 28.7363 16.9531 29.9258 16.2969 30.9648C15.6497 32.0039 14.7428 32.8151 13.5762 33.3984C12.4186 33.9818 11.0241 34.2734 9.39258 34.2734C8.11654 34.2734 6.97266 34.0547 5.96094 33.6172C4.94922 33.1706 4.08333 32.5326 3.36328 31.7031C2.65234 30.8737 2.11003 29.8711 1.73633 28.6953C1.36263 27.5195 1.17578 26.2025 1.17578 24.7441V23.3633C1.17578 21.9049 1.36719 20.5879 1.75 19.4121C2.14193 18.2272 2.69792 17.2201 3.41797 16.3906C4.14714 15.5612 5.01758 14.9232 6.0293 14.4766C7.04102 14.0299 8.17122 13.8066 9.41992 13.8066C11.0788 13.8066 12.4779 14.1074 13.6172 14.709C14.7656 15.3105 15.6543 16.14 16.2832 17.1973C16.9212 18.2546 17.304 19.4577 17.4316 20.8066H13.3301C13.2845 20.0046 13.125 19.3255 12.8516 18.7695C12.5781 18.2044 12.1634 17.7806 11.6074 17.498C11.0605 17.2064 10.3314 17.0605 9.41992 17.0605C8.73633 17.0605 8.13932 17.1882 7.62891 17.4434C7.11849 17.6986 6.6901 18.0859 6.34375 18.6055C5.9974 19.125 5.73763 19.7812 5.56445 20.5742C5.40039 21.3581 5.31836 22.2786 5.31836 23.3359V24.7441C5.31836 25.7741 5.39583 26.681 5.55078 27.4648C5.70573 28.2396 5.94271 28.8958 6.26172 29.4336C6.58984 29.9622 7.00911 30.3633 7.51953 30.6367C8.03906 30.901 8.66341 31.0332 9.39258 31.0332C10.2493 31.0332 10.9557 30.8965 11.5117 30.623C12.0677 30.3496 12.4915 29.944 12.7832 29.4062C13.084 28.8685 13.2617 28.1986 13.3164 27.3965ZM103.77 25.2637H98.6562L98.6289 22.4473H102.922C103.678 22.4473 104.298 22.3516 104.781 22.1602C105.264 21.9596 105.624 21.6725 105.861 21.2988C106.107 20.916 106.23 20.4512 106.23 19.9043C106.23 19.2845 106.112 18.7832 105.875 18.4004C105.647 18.0176 105.287 17.7396 104.795 17.5664C104.312 17.3932 103.688 17.3066 102.922 17.3066H100.078V34H95.9766V14.0938H102.922C104.079 14.0938 105.114 14.2031 106.025 14.4219C106.946 14.6406 107.725 14.9733 108.363 15.4199C109.001 15.8665 109.489 16.4316 109.826 17.1152C110.163 17.7897 110.332 18.5918 110.332 19.5215C110.332 20.3418 110.145 21.0983 109.771 21.791C109.407 22.4837 108.828 23.0488 108.035 23.4863C107.251 23.9238 106.226 24.1654 104.959 24.2109L103.77 25.2637ZM103.592 34H97.5352L99.1348 30.8008H103.592C104.312 30.8008 104.9 30.6868 105.355 30.459C105.811 30.222 106.148 29.903 106.367 29.502C106.586 29.1009 106.695 28.6406 106.695 28.1211C106.695 27.5378 106.595 27.0319 106.395 26.6035C106.203 26.1751 105.893 25.847 105.465 25.6191C105.036 25.3822 104.471 25.2637 103.77 25.2637H99.8184L99.8457 22.4473H104.768L105.711 23.5547C106.923 23.5365 107.898 23.7507 108.637 24.1973C109.384 24.6348 109.926 25.2044 110.264 25.9062C110.61 26.6081 110.783 27.36 110.783 28.1621C110.783 29.4382 110.505 30.5137 109.949 31.3887C109.393 32.2546 108.577 32.9062 107.502 33.3438C106.436 33.7812 105.132 34 103.592 34Z" fill="white"/>
<path d="M22.832 14.0938L26.9883 23.1719L31.1445 14.0938H35.6152L29.0664 26.7539V34H24.9102V26.7539L18.3477 14.0938H22.832ZM45.2266 25.2637H40.1133L40.0859 22.4473H44.3789C45.1354 22.4473 45.7552 22.3516 46.2383 22.1602C46.7214 21.9596 47.0814 21.6725 47.3184 21.2988C47.5645 20.916 47.6875 20.4512 47.6875 19.9043C47.6875 19.2845 47.569 18.7832 47.332 18.4004C47.1042 18.0176 46.7441 17.7396 46.252 17.5664C45.7689 17.3932 45.1445 17.3066 44.3789 17.3066H41.5352V34H37.4336V14.0938H44.3789C45.5365 14.0938 46.571 14.2031 47.4824 14.4219C48.403 14.6406 49.1823 14.9733 49.8203 15.4199C50.4583 15.8665 50.946 16.4316 51.2832 17.1152C51.6204 17.7897 51.7891 18.5918 51.7891 19.5215C51.7891 20.3418 51.6022 21.0983 51.2285 21.791C50.8639 22.4837 50.2852 23.0488 49.4922 23.4863C48.7083 23.9238 47.6829 24.1654 46.416 24.2109L45.2266 25.2637ZM45.0488 34H38.9922L40.5918 30.8008H45.0488C45.7689 30.8008 46.3568 30.6868 46.8125 30.459C47.2682 30.222 47.6055 29.903 47.8242 29.502C48.043 29.1009 48.1523 28.6406 48.1523 28.1211C48.1523 27.5378 48.0521 27.0319 47.8516 26.6035C47.6602 26.1751 47.3503 25.847 46.9219 25.6191C46.4935 25.3822 45.9284 25.2637 45.2266 25.2637H41.2754L41.3027 22.4473H46.2246L47.168 23.5547C48.3802 23.5365 49.3555 23.7507 50.0938 24.1973C50.8411 24.6348 51.3835 25.2044 51.7207 25.9062C52.0671 26.6081 52.2402 27.36 52.2402 28.1621C52.2402 29.4382 51.9622 30.5137 51.4062 31.3887C50.8503 32.2546 50.0345 32.9062 48.959 33.3438C47.8926 33.7812 46.5892 34 45.0488 34ZM68.6738 30.8008V34H58.0781V30.8008H68.6738ZM59.418 14.0938V34H55.3164V14.0938H59.418ZM67.293 22.2012V25.3184H58.0781V22.2012H67.293ZM68.6602 14.0938V17.3066H58.0781V14.0938H68.6602ZM71.0664 14.0938H78.4902C80.0124 14.0938 81.3203 14.3216 82.4141 14.7773C83.5169 15.2331 84.3646 15.9076 84.957 16.8008C85.5495 17.694 85.8457 18.7923 85.8457 20.0957C85.8457 21.1621 85.6634 22.0781 85.2988 22.8438C84.9434 23.6003 84.4375 24.2337 83.7812 24.7441C83.1341 25.2454 82.373 25.6465 81.498 25.9473L80.1992 26.6309H73.7461L73.7188 23.4316H78.5176C79.2376 23.4316 79.8346 23.304 80.3086 23.0488C80.7826 22.7936 81.138 22.4382 81.375 21.9824C81.6211 21.5267 81.7441 20.998 81.7441 20.3965C81.7441 19.7585 81.6257 19.207 81.3887 18.7422C81.1517 18.2773 80.7917 17.9219 80.3086 17.6758C79.8255 17.4297 79.2194 17.3066 78.4902 17.3066H75.168V34H71.0664V14.0938ZM82.1953 34L77.6562 25.127L81.9902 25.0996L86.584 33.8086V34H82.1953ZM121.953 17.498L116.539 34H112.178L119.574 14.0938H122.35L121.953 17.498ZM126.451 34L121.023 17.498L120.586 14.0938H123.389L130.826 34H126.451ZM126.205 26.5898V29.8027H115.691V26.5898H126.205ZM147.068 30.8008V34H132.959V30.8008H147.068ZM146.863 16.377L134.777 34H131.893V31.6484L144.074 14.0938H146.863V16.377ZM145.455 14.0938V17.3066H131.906V14.0938H145.455ZM157.965 17.498L152.551 34H148.189L155.586 14.0938H158.361L157.965 17.498ZM162.463 34L157.035 17.498L156.598 14.0938H159.4L166.838 34H162.463ZM162.217 26.5898V29.8027H151.703V26.5898H162.217ZM176.777 17.498L171.363 34H167.002L174.398 14.0938H177.174L176.777 17.498ZM181.275 34L175.848 17.498L175.41 14.0938H178.213L185.65 34H181.275ZM181.029 26.5898V29.8027H170.516V26.5898H181.029ZM187.496 14.0938H194.92C196.442 14.0938 197.75 14.3216 198.844 14.7773C199.947 15.2331 200.794 15.9076 201.387 16.8008C201.979 17.694 202.275 18.7923 202.275 20.0957C202.275 21.1621 202.093 22.0781 201.729 22.8438C201.373 23.6003 200.867 24.2337 200.211 24.7441C199.564 25.2454 198.803 25.6465 197.928 25.9473L196.629 26.6309H190.176L190.148 23.4316H194.947C195.667 23.4316 196.264 23.304 196.738 23.0488C197.212 22.7936 197.568 22.4382 197.805 21.9824C198.051 21.5267 198.174 20.998 198.174 20.3965C198.174 19.7585 198.055 19.207 197.818 18.7422C197.581 18.2773 197.221 17.9219 196.738 17.6758C196.255 17.4297 195.649 17.3066 194.92 17.3066H191.598V34H187.496V14.0938ZM198.625 34L194.086 25.127L198.42 25.0996L203.014 33.8086V34H198.625Z" fill="#0E86CA"/>
</g>
<defs>
<filter id="filter0_d_12_3830" x="212.045" y="2.32201" width="49.356" height="51.356" filterUnits="userSpaceOnUse" color-interpolation-filters="sRGB">
<feFlood flood-opacity="0" result="BackgroundImageFix"/>
<feColorMatrix in="SourceAlpha" type="matrix" values="0 0 0 0 0 0 0 0 0 0 0 0 0 0 0 0 0 0 127 0" result="hardAlpha"/>
<feOffset dx="2" dy="4"/>
<feGaussianBlur stdDeviation="1"/>
<feComposite in2="hardAlpha" operator="out"/>
<feColorMatrix type="matrix" values="0 0 0 0 0 0 0 0 0 0 0 0 0 0 0 0 0 0 0.25 0"/>
<feBlend mode="normal" in2="BackgroundImageFix" result="effect1_dropShadow_12_3830"/>
<feBlend mode="normal" in="SourceGraphic" in2="effect1_dropShadow_12_3830" result="shape"/>
</filter>
<filter id="filter1_d_12_3830" x="1.17578" y="13.8066" width="205.838" height="26.4668" filterUnits="userSpaceOnUse" color-interpolation-filters="sRGB">
<feFlood flood-opacity="0" result="BackgroundImageFix"/>
<feColorMatrix in="SourceAlpha" type="matrix" values="0 0 0 0 0 0 0 0 0 0 0 0 0 0 0 0 0 0 127 0" result="hardAlpha"/>
<feOffset dx="2" dy="4"/>
<feGaussianBlur stdDeviation="1"/>
<feComposite in2="hardAlpha" operator="out"/>
<feColorMatrix type="matrix" values="0 0 0 0 0 0 0 0 0 0 0 0 0 0 0 0 0 0 0.25 0"/>
<feBlend mode="normal" in2="BackgroundImageFix" result="effect1_dropShadow_12_3830"/>
<feBlend mode="normal" in="SourceGraphic" in2="effect1_dropShadow_12_3830" result="shape"/>
</filter>
</defs>
</svg>
