<svg width="30" height="30" viewBox="0 0 30 30" fill="none" xmlns="http://www.w3.org/2000/svg">
<rect width="30" height="30" rx="4" fill="#666666" fill-opacity="0.6"/>
<path d="M15.5675 20.7105C15.5675 20.7105 15.6068 20.6712 15.6855 20.5925C15.7642 20.5138 15.8035 20.364 15.8035 20.143C15.8035 19.922 15.7249 19.7328 15.5675 19.5755C15.4101 19.4181 15.2209 19.3394 15 19.3394C14.779 19.3394 14.5898 19.4181 14.4324 19.5755C14.2751 19.7328 14.1964 19.922 14.1964 20.143C14.1964 20.364 14.2751 20.5532 14.4324 20.7105C14.5898 20.8679 14.779 20.9466 15 20.9466C15.2209 20.9466 15.4101 20.8679 15.5675 20.7105ZM17.8928 18.5359V11.4644C17.8928 11.3774 17.861 11.302 17.7974 11.2384C17.7338 11.1748 17.6584 11.143 17.5714 11.143H12.4285C12.3415 11.143 12.2661 11.1748 12.2025 11.2384C12.1389 11.302 12.1071 11.3774 12.1071 11.4644V18.5359C12.1071 18.6229 12.1389 18.6982 12.2025 18.7619C12.2661 18.8255 12.3415 18.8573 12.4285 18.8573H17.5714C17.6584 18.8573 17.7338 18.8255 17.7974 18.7619C17.861 18.6982 17.8928 18.6229 17.8928 18.5359ZM15.8035 10.1787C15.9107 10.1787 15.9643 10.1251 15.9643 10.018C15.9643 9.91085 15.9107 9.85728 15.8035 9.85728H14.1964C14.0893 9.85728 14.0357 9.91085 14.0357 10.018C14.0357 10.1251 14.0893 10.1787 14.1964 10.1787H15.8035ZM18.8571 9.85728V20.143C18.8571 20.4912 18.7299 20.7926 18.4754 21.047C18.2209 21.3015 17.9196 21.4287 17.5714 21.4287H12.4285C12.0803 21.4287 11.779 21.3015 11.5245 21.047C11.2701 20.7926 11.1428 20.4912 11.1428 20.143V9.85728C11.1428 9.50907 11.2701 9.20773 11.5245 8.95326C11.779 8.6988 12.0803 8.57157 12.4285 8.57157H17.5714C17.9196 8.57157 18.2209 8.6988 18.4754 8.95326C18.7299 9.20773 18.8571 9.50907 18.8571 9.85728Z" fill="white"/>
</svg>
