<svg width="17" height="17" viewBox="0 0 17 17" fill="none" xmlns="http://www.w3.org/2000/svg">
<path d="M11.8293 11.6328C11.8163 11.6458 11.8033 11.6589 11.7903 11.6719C11.7773 11.6849 11.7642 11.6979 11.7512 11.7109C11.7382 11.724 11.7252 11.737 11.7122 11.75C11.6991 11.763 11.6861 11.776 11.6731 11.7891C11.4127 12.0365 11.1327 12.2611 10.8333 12.4629C10.5338 12.6647 10.2083 12.8372 9.85669 12.9805C9.51815 13.1237 9.16333 13.2311 8.79224 13.3027C8.42114 13.3743 8.03377 13.4102 7.63013 13.4102C7.2395 13.4102 6.85539 13.3743 6.47778 13.3027C6.10018 13.2311 5.74211 13.1237 5.40356 12.9805C5.052 12.8242 4.71672 12.6419 4.39771 12.4336C4.07869 12.2253 3.78247 11.9844 3.50903 11.7109C3.2356 11.4375 2.99471 11.1413 2.78638 10.8223C2.57804 10.5033 2.39575 10.168 2.2395 9.81641C2.09627 9.47786 1.98885 9.11979 1.91724 8.74219C1.84562 8.36458 1.80981 7.98047 1.80981 7.58984C1.80981 7.1862 1.84562 6.79883 1.91724 6.42773C1.98885 6.05664 2.09627 5.69531 2.2395 5.34375C2.39575 4.99219 2.57804 4.6569 2.78638 4.33789C2.99471 4.01888 3.2356 3.72266 3.50903 3.44922C3.78247 3.1888 4.07869 2.95117 4.39771 2.73633C4.71672 2.52148 5.052 2.34245 5.40356 2.19922C5.74211 2.05599 6.10018 1.94531 6.47778 1.86719C6.85539 1.78906 7.2395 1.75 7.63013 1.75C8.03377 1.75 8.42114 1.78906 8.79224 1.86719C9.16333 1.94531 9.52466 2.05599 9.87622 2.19922C10.2278 2.34245 10.5631 2.52148 10.8821 2.73633C11.2011 2.95117 11.4973 3.19531 11.7708 3.46875C12.0312 3.72917 12.2688 4.01888 12.4836 4.33789C12.6985 4.6569 12.8775 4.99219 13.0208 5.34375C13.164 5.69531 13.2747 6.05664 13.3528 6.42773C13.4309 6.79883 13.47 7.1862 13.47 7.58984C13.47 7.98047 13.4309 8.36458 13.3528 8.74219C13.2747 9.11979 13.164 9.47786 13.0208 9.81641C12.8905 10.1549 12.7245 10.4772 12.5227 10.7832C12.3209 11.0892 12.0898 11.3724 11.8293 11.6328ZM16.5559 15.3242L13.4895 12.2578C13.7109 11.9844 13.9127 11.6979 14.095 11.3984C14.2773 11.099 14.4335 10.7865 14.5637 10.4609C14.746 10.0182 14.886 9.55599 14.9836 9.07422C15.0813 8.59245 15.1301 8.09766 15.1301 7.58984C15.1301 7.08203 15.0813 6.58724 14.9836 6.10547C14.886 5.6237 14.746 5.16146 14.5637 4.71875C14.3814 4.26302 14.1503 3.83008 13.8704 3.41992C13.5904 3.00977 13.2812 2.62891 12.9426 2.27734C12.5911 1.9388 12.2102 1.62956 11.8 1.34961C11.3899 1.06966 10.957 0.838542 10.5012 0.65625C10.0585 0.473959 9.59627 0.333984 9.1145 0.236328C8.63273 0.138672 8.13794 0.0898438 7.63013 0.0898438C7.12231 0.0898438 6.62752 0.138672 6.14575 0.236328C5.66398 0.333984 5.20174 0.473959 4.75903 0.65625C4.3033 0.838542 3.87036 1.06966 3.46021 1.34961C3.05005 1.62956 2.6757 1.9388 2.33716 2.27734C1.9856 2.62891 1.6731 3.00977 1.39966 3.41992C1.12622 3.83008 0.891846 4.26302 0.696533 4.71875C0.514242 5.16146 0.374268 5.6237 0.276611 6.10547C0.178955 6.58724 0.130127 7.08203 0.130127 7.58984C0.130127 8.09766 0.178955 8.59245 0.276611 9.07422C0.374268 9.55599 0.514242 10.0182 0.696533 10.4609C0.891846 10.9167 1.12622 11.3496 1.39966 11.7598C1.6731 12.1699 1.9856 12.5443 2.33716 12.8828C2.6757 13.2344 3.05005 13.5469 3.46021 13.8203C3.87036 14.0938 4.3033 14.3281 4.75903 14.5234C5.20174 14.7057 5.66398 14.8457 6.14575 14.9434C6.62752 15.041 7.12231 15.0898 7.63013 15.0898C8.13794 15.0898 8.63273 15.041 9.1145 14.9434C9.59627 14.8457 10.0585 14.7057 10.5012 14.5234C10.8267 14.3802 11.1425 14.2174 11.4485 14.0352C11.7545 13.8529 12.0442 13.6576 12.3176 13.4492L15.384 16.4961C15.5403 16.6654 15.7356 16.75 15.97 16.75C16.2043 16.75 16.3997 16.6654 16.5559 16.4961C16.7252 16.3398 16.8098 16.1478 16.8098 15.9199C16.8098 15.6921 16.7252 15.4935 16.5559 15.3242Z" fill="white"/>
</svg>
