<svg width="138" height="120" viewBox="0 0 138 120" fill="none" xmlns="http://www.w3.org/2000/svg">
<path d="M60.3691 90.5391C62.9082 93.0781 65.8379 94.3477 69.1582 94.3477C72.4785 94.3477 75.4082 93.0781 77.9473 90.5391C80.4863 88 81.7559 85.0703 81.7559 81.75C81.7559 78.4297 80.4863 75.5 77.9473 72.9609C75.4082 70.4219 72.4785 69.1523 69.1582 69.1523C65.8379 69.1523 62.9082 70.4219 60.3691 72.9609C57.8301 75.5 56.5605 78.4297 56.5605 81.75C56.5605 85.0703 57.8301 88 60.3691 90.5391ZM50.4082 44.25H87.9082L69.1582 16.7109L50.4082 44.25ZM101.678 44.25H131.561C133.318 44.25 134.783 44.8359 135.955 46.0078C137.322 47.1797 138.006 48.6445 138.006 50.4023C136.053 58.2148 133.123 69.25 129.217 83.5078C125.311 97.5703 122.869 106.457 121.893 110.168C120.135 116.223 116.131 119.25 109.881 119.25H28.4355C22.1855 119.25 18.1816 116.223 16.4238 110.168L0.603516 52.1602C0.408203 51.7695 0.310547 51.1836 0.310547 50.4023C0.310547 48.6445 0.896484 47.1797 2.06836 46.0078C3.43555 44.8359 4.99805 44.25 6.75586 44.25H36.6387L63.8848 3.23438C65.0566 1.47656 66.8145 0.597656 69.1582 0.597656C71.6973 0.597656 73.4551 1.47656 74.4316 3.23438L101.678 44.25Z" fill="#EBECEE"/>
</svg>
